<svg version="1.1" id="Layer_1" xmlns="http://www.w3.org/2000/svg" xmlns:xlink="http://www.w3.org/1999/xlink" x="0px" y="0px"
	 width="100%" viewBox="0 0 1024 1024" enable-background="new 0 0 1024 1024" xml:space="preserve">
<path fill="#371087" opacity="1.000000" stroke="none" 
	d="
M328.888550,105.790237 
	C364.037598,90.597443 400.111908,79.966858 437.495422,73.515038 
	C470.464447,67.825096 503.670532,66.384254 536.938965,67.975204 
	C587.308411,70.383957 636.008423,81.330818 682.851929,99.972099 
	C765.497620,132.860809 832.349854,185.840515 882.612183,259.277954 
	C916.176208,308.317841 939.346497,361.999908 950.982178,420.379608 
	C955.363159,442.360199 957.488708,464.646942 958.654968,487.101868 
	C959.522339,503.803772 959.303101,520.420471 958.125854,536.977539 
	C955.742065,570.501831 950.032654,603.478027 940.416382,635.804565 
	C925.294250,686.639221 901.784241,733.171814 870.197327,775.655762 
	C829.746826,830.061279 779.037476,872.511536 719.144104,904.033997 
	C677.295410,926.059265 632.911682,940.710693 586.259888,948.401367 
	C558.955444,952.902588 531.437988,954.751648 503.769196,954.203369 
	C449.816803,953.134216 397.748291,942.302368 347.793518,922.245056 
	C255.563477,885.213928 183.347290,824.111084 131.711380,739.128174 
	C103.640366,692.928650 84.248711,643.165588 73.993599,590.034668 
	C70.345558,571.134460 68.267929,551.989441 67.467140,532.684570 
	C67.066841,523.034363 66.576874,513.393188 66.691452,503.742432 
	C67.319145,450.868713 77.217209,399.795898 96.128822,350.388275 
	C113.688423,304.512878 138.441422,262.926239 169.712708,225.171539 
	C197.224884,191.955338 229.320694,163.885941 265.345459,140.168777 
	C285.455719,126.929039 306.649109,115.823761 328.888550,105.790237 
M440.934814,717.399414 
	C433.498810,727.031860 424.430450,734.730896 413.749481,740.575623 
	C410.988342,742.086548 408.032715,743.360474 405.778900,745.675171 
	C397.249237,754.435852 387.698090,761.944336 377.411346,768.499084 
	C368.503662,774.175171 362.881104,782.026855 360.743652,792.365601 
	C360.239410,794.804626 359.825256,797.262329 359.326538,799.702637 
	C354.950684,821.115173 346.187012,840.183472 329.575287,854.998718 
	C326.128448,858.072815 322.474548,860.914795 318.248230,864.417175 
	C358.495728,886.909790 401.004120,901.016724 445.723358,908.575928 
	C490.321991,916.114685 534.928955,916.007751 579.481812,907.691772 
	C575.744873,904.900085 571.786194,903.158752 568.154297,900.893555 
	C551.729919,890.649536 539.402100,876.279663 528.237732,860.775208 
	C512.358643,838.723083 498.981598,815.035583 483.683105,792.604248 
	C477.853424,784.056641 470.497284,777.231018 461.220245,772.486694 
	C456.268097,769.954102 451.395233,769.622192 446.359985,772.026123 
	C442.847778,773.702942 439.200226,774.695435 435.252686,774.331238 
	C430.065399,773.852661 426.943848,770.372681 426.616608,765.179688 
	C426.263428,759.574280 429.593109,755.774414 432.761597,751.959534 
	C449.037933,732.362671 465.319763,712.768799 481.791138,693.336182 
	C488.462341,685.465637 494.774872,677.256287 502.348022,670.175293 
	C505.698608,667.042480 509.392700,664.992737 514.072449,666.805664 
	C518.824402,668.646606 519.826294,672.885620 520.304443,677.328674 
	C520.756409,681.528931 520.114136,685.715515 519.060913,689.692200 
	C518.193481,692.967163 518.791443,695.491455 520.512390,698.129822 
	C539.272095,726.889465 555.626831,757.080261 573.153381,786.574036 
	C578.852966,796.165466 584.877258,805.580078 591.884888,814.291260 
	C593.364563,816.130615 594.939270,819.125000 597.665955,818.331299 
	C600.552979,817.490784 600.519897,814.221680 600.797974,811.557068 
	C601.360107,806.168884 600.510803,800.934021 599.079041,795.780518 
	C589.955261,762.939026 579.526794,730.485291 569.982971,697.772339 
	C567.699890,689.946899 564.595337,686.175232 555.944275,684.955811 
	C540.790161,682.819763 531.309021,670.660400 542.029541,656.512024 
	C543.558655,654.493896 542.964783,653.122742 541.117920,652.011536 
	C539.697815,651.157227 538.128967,650.554077 536.649597,649.793884 
	C527.047424,644.858948 524.207397,634.605103 530.641602,625.962463 
	C533.928894,621.546875 532.806519,619.750427 528.527832,617.354980 
	C521.321960,613.320984 518.069092,606.197571 519.925049,599.341370 
	C521.899536,592.047363 527.050049,587.338806 533.789978,584.556702 
	C537.802185,582.900452 538.307739,580.878418 536.969482,576.938782 
	C529.159424,553.948364 520.801880,531.125977 514.223267,507.740814 
	C508.610504,487.789154 501.431549,468.102814 502.638367,446.816986 
	C503.391174,433.539032 508.005005,422.204987 518.620972,413.757507 
	C532.002686,403.109192 547.987671,400.180023 564.361633,398.696686 
	C576.612854,397.586823 588.918457,397.078217 601.170044,395.971985 
	C609.741516,395.198029 609.878723,394.761414 609.710510,385.361359 
	C603.781738,385.361359 597.825012,385.449860 591.871704,385.343048 
	C579.299927,385.117554 572.552368,375.277466 576.771606,363.416382 
	C577.784363,360.569183 579.367126,358.031372 581.083069,355.557343 
	C590.105957,342.548370 599.635193,329.934204 609.946594,317.908936 
	C613.418762,313.859680 616.600830,309.555939 617.613342,304.101013 
	C618.974365,296.768372 619.943054,289.338928 621.739502,282.114990 
	C632.360413,239.405777 658.100586,210.691879 700.657043,197.915298 
	C719.729736,192.189163 739.389893,192.269531 759.052429,192.643478 
	C760.545044,192.671860 762.328735,193.579071 764.382996,190.955551 
	C693.361572,138.441940 614.298035,109.024803 526.050476,106.553307 
	C406.729492,103.211555 305.573090,146.411102 220.327438,228.801819 
	C222.393112,228.899445 224.237488,228.378723 226.034348,227.726974 
	C254.555222,217.381653 283.658936,213.149704 313.693024,219.722900 
	C340.104614,225.503281 362.803467,237.363754 378.526367,260.288757 
	C390.227142,277.349213 396.824799,296.435089 400.309601,316.630157 
	C403.145447,333.064362 408.461578,348.140778 420.817841,360.039734 
	C423.451965,362.576385 425.321075,365.805573 427.006744,369.084595 
	C434.932770,384.502594 429.857971,401.061859 414.591492,409.156921 
	C411.665710,410.708344 408.564331,412.077240 405.385712,412.961182 
	C402.216888,413.842346 400.773407,415.433136 400.206146,418.721802 
	C399.220367,424.436432 397.865204,430.109375 396.300995,435.697937 
	C392.064270,450.834442 384.232086,463.805878 372.181702,474.019745 
	C355.826965,487.882050 336.977783,491.119568 316.446045,486.654358 
	C308.032196,484.824524 304.226776,486.621979 300.581390,494.487549 
	C299.531494,496.752930 298.722900,499.134186 297.607483,501.364166 
	C296.046387,504.485138 296.912323,506.239624 300.195435,507.320221 
	C307.827057,509.832123 314.895569,513.585022 321.807587,517.622925 
	C347.983826,532.914673 366.598083,555.565308 382.906769,580.461182 
	C384.063477,582.226929 384.800568,584.387390 386.889923,585.353027 
	C387.290558,585.265442 387.712921,585.303467 387.912323,585.110718 
	C400.009796,573.419312 412.093201,561.713257 424.164551,549.994812 
	C425.623657,548.578369 425.852020,546.972900 425.179352,544.977966 
	C423.905212,541.199158 424.714966,537.710327 427.456787,534.793335 
	C438.295868,523.261963 449.045319,511.642456 460.080017,500.300781 
	C465.074982,495.166901 470.156128,495.694031 474.574554,501.201874 
	C484.684906,513.804932 494.770111,526.428528 504.802032,539.094055 
	C510.162292,545.861511 509.821960,549.665161 503.180298,555.191101 
	C493.319916,563.395142 483.371796,571.495911 473.359131,579.513367 
	C470.364624,581.911133 467.154205,583.753723 462.826630,582.816162 
	C459.402466,582.074219 457.647644,585.344788 455.600586,587.333252 
	C453.798218,589.084045 455.829865,590.712646 456.657684,592.188049 
	C458.788605,595.985840 460.506165,599.932129 461.687134,604.125000 
	C466.483826,621.154907 467.339355,638.424500 465.445801,655.977844 
	C463.013123,678.529236 455.348267,698.907043 440.934814,717.399414 
M349.902802,442.795441 
	C344.578094,440.737854 339.695099,437.903076 335.245087,434.340454 
	C331.390533,431.254456 328.414001,427.505829 327.086304,422.660828 
	C325.790619,417.932800 327.908173,413.386536 332.204681,411.441498 
	C336.700134,409.406433 341.268158,410.651123 343.776855,415.187103 
	C346.178284,419.529144 349.724152,422.296692 354.059418,424.255768 
	C360.191925,427.026886 366.688446,428.135803 373.373047,428.733643 
	C378.120605,429.158173 379.824738,427.002258 380.609802,422.784668 
	C381.763275,416.587891 383.412903,410.484375 384.614319,404.295197 
	C385.517548,399.642151 387.692230,397.002380 392.771851,396.464050 
	C397.185669,395.996277 401.605774,394.906494 405.519165,392.441223 
	C411.791260,388.490143 412.992523,384.359039 409.627747,377.703400 
	C407.578064,373.648956 404.643494,370.218750 401.692505,366.830933 
	C392.965912,356.812561 387.307007,345.279419 384.638947,332.306793 
	C380.806946,313.674927 376.114044,295.359131 366.292145,278.784515 
	C364.463745,275.699036 362.851227,272.475525 360.015533,269.405640 
	C356.638702,276.354919 353.851410,282.904236 350.271973,289.078339 
	C332.396820,319.910797 305.492432,339.020569 272.107117,349.890381 
	C267.808868,351.289856 265.357086,350.802063 262.622253,346.324280 
	C252.690216,330.062775 230.468735,328.659485 218.446396,343.026703 
	C203.496719,360.892212 213.182190,388.692474 236.176025,393.643555 
	C240.130356,394.494995 241.658768,395.605743 240.623367,400.239594 
	C238.016098,411.908203 235.695099,423.647400 232.193314,435.083344 
	C226.201843,454.649872 220.533264,474.394440 208.035019,491.158020 
	C206.688782,492.963715 206.962753,494.328522 207.976868,496.119110 
	C217.836014,513.527100 242.752655,524.950012 262.473145,521.458069 
	C267.694336,520.533447 270.719543,518.059631 272.667358,513.345154 
	C277.180573,502.421204 281.902100,491.583221 286.558807,480.718781 
	C289.660400,473.482666 294.967102,469.052246 302.753723,467.270660 
	C308.038147,466.061584 313.029480,467.346069 318.040863,468.228241 
	C326.628723,469.740051 335.211273,470.787262 343.739929,468.513855 
	C355.281372,465.437347 364.068970,458.623322 370.613373,447.750305 
	C363.200653,447.131226 356.818970,445.466278 349.902802,442.795441 
M598.717529,596.906311 
	C607.611938,618.332764 616.506348,639.759216 625.431030,661.258545 
	C629.325439,659.592529 628.864075,656.420654 629.417542,654.074036 
	C642.308472,599.418884 664.950989,549.686646 702.937439,507.650055 
	C704.330383,506.108551 704.591492,504.696106 703.907837,502.686523 
	C701.284729,494.975983 698.981567,487.156036 696.325256,479.457550 
	C693.649597,471.702942 689.174133,468.563324 681.013489,468.348206 
	C677.184631,468.247284 673.347351,468.395203 669.522156,468.234467 
	C659.350891,467.806915 649.251404,466.730347 639.877197,462.420929 
	C624.356018,455.285828 614.643127,443.247345 610.645325,426.660950 
	C609.745544,422.927826 608.607056,421.012054 603.924927,422.068909 
	C595.036987,424.075012 585.929993,425.090942 576.946533,426.699707 
	C569.766907,427.985443 562.458740,428.728333 555.550232,431.286713 
	C543.918823,435.593903 539.119995,444.524658 541.898132,456.548157 
	C542.912170,460.937164 544.321594,465.184326 546.039062,469.343170 
	C563.501038,511.628418 580.951904,553.918274 598.717529,596.906311 
M900.411194,557.190979 
	C904.337341,565.919189 908.263550,574.647400 912.189758,583.375610 
	C912.634155,583.302307 913.078491,583.229004 913.522888,583.155762 
	C924.631042,517.951477 922.680176,453.364929 903.065674,389.691345 
	C895.265869,364.371063 885.214722,339.984070 871.884583,316.257172 
	C868.094299,321.289612 869.183899,326.258148 868.553589,330.698883 
	C864.996155,355.761505 856.440063,378.642090 840.542053,398.551178 
	C833.202942,407.741974 828.423462,418.056793 827.403503,429.839630 
	C825.604980,450.616455 831.950745,468.075897 847.015015,483.101227 
	C868.596375,504.626923 886.141907,529.337097 900.411194,557.190979 
M231.248856,800.252075 
	C250.760849,818.734192 271.821777,835.254272 294.081238,850.303650 
	C298.234375,853.111572 301.336121,853.288513 305.635925,850.414307 
	C324.445740,837.841309 336.395538,820.797852 340.656494,798.522583 
	C343.703186,782.595093 347.954407,767.370239 361.785583,756.881165 
	C366.311005,753.449341 371.173950,750.584290 375.875000,747.447327 
	C390.844910,737.457886 401.483643,724.092896 405.471497,706.345520 
	C408.756683,691.725525 406.581909,677.262817 402.026245,663.136719 
	C398.615387,652.560242 397.822845,652.221619 389.841736,660.004944 
	C373.984375,675.469421 358.501984,691.319519 342.579773,706.715637 
	C338.207031,710.943848 336.204742,715.190002 336.168488,721.434814 
	C336.043457,742.992004 315.243866,760.685486 294.118134,757.637024 
	C289.567871,756.980469 287.266571,758.095215 285.740631,762.805969 
	C281.012817,777.401550 268.161072,792.737061 245.413788,791.366882 
	C238.878799,790.973267 232.758820,788.810547 226.553513,786.957275 
	C224.038010,786.205933 221.483444,784.345642 217.809891,786.411926 
	C221.762451,791.582458 226.579147,795.377930 231.248856,800.252075 
M287.127563,610.545898 
	C272.376190,616.779785 261.761383,627.608154 254.234955,641.374573 
	C245.179138,657.938354 231.614395,666.646301 212.842102,668.567383 
	C199.137360,669.969849 185.488968,672.516602 173.236923,679.532288 
	C167.671783,682.718933 162.086212,685.955933 158.502060,691.981384 
	C161.132126,693.095093 163.365463,694.216980 165.710587,695.006958 
	C192.182831,703.924316 218.665680,712.810303 245.161896,721.656128 
	C251.302246,723.706116 251.793610,723.294067 251.726578,717.024658 
	C251.452774,691.416138 271.802032,672.149475 297.343811,673.927612 
	C299.120239,674.051331 300.495117,673.972351 301.870087,672.666809 
	C316.473267,658.800964 331.442505,645.313049 344.642303,630.027100 
	C347.162628,627.108459 346.692352,624.924500 344.060272,622.892273 
	C327.301788,609.952637 309.165314,602.997314 287.127563,610.545898 
z"/>
<path fill="#371087" opacity="1.000000" stroke="none" 
	d="
M338.572571,350.684540 
	C338.809631,341.769928 342.552979,336.768616 350.021576,334.969086 
	C355.874115,333.558960 362.829315,336.603424 365.871643,341.907074 
	C368.437012,346.379211 367.925262,354.448395 364.819092,358.504211 
	C361.141479,363.306183 354.793152,365.084991 348.151520,363.174469 
	C342.851135,361.649780 339.326355,357.187988 338.572571,350.684540 
z"/>
</svg>
